<svg width="60" height="60" viewBox="0 0 60 60" fill="none" xmlns="http://www.w3.org/2000/svg">
<rect width="60" height="60" rx="30" fill="#0A66C2"/>
<path d="M44.064 13.5H15.936C15.29 13.5 14.6703 13.7567 14.2135 14.2135C13.7567 14.6703 13.5 15.29 13.5 15.936V44.064C13.5 44.71 13.7567 45.3297 14.2135 45.7865C14.6703 46.2433 15.29 46.5 15.936 46.5H44.064C44.71 46.5 45.3297 46.2433 45.7865 45.7865C46.2433 45.3297 46.5 44.71 46.5 44.064V15.936C46.5 15.29 46.2433 14.6703 45.7865 14.2135C45.3297 13.7567 44.71 13.5 44.064 13.5ZM23.3358 41.6119H18.3744V25.8521H23.3358V41.6119ZM20.8517 23.6681C20.2889 23.665 19.7396 23.4951 19.2733 23.1801C18.8069 22.8651 18.4443 22.419 18.2312 21.8981C18.0181 21.3772 17.9641 20.8048 18.076 20.2533C18.1879 19.7017 18.4607 19.1956 18.86 18.7989C19.2592 18.4023 19.767 18.1327 20.3193 18.0244C20.8715 17.916 21.4435 17.9737 21.9631 18.1901C22.4826 18.4065 22.9264 18.772 23.2384 19.2404C23.5504 19.7088 23.7167 20.2591 23.7163 20.8219C23.7216 21.1987 23.651 21.5727 23.5086 21.9216C23.3663 22.2705 23.1552 22.5872 22.8879 22.8528C22.6206 23.1184 22.3025 23.3275 21.9527 23.4676C21.6029 23.6077 21.2284 23.6759 20.8517 23.6681ZM41.6233 41.6256H36.6642V33.0158C36.6642 30.4767 35.5848 29.6929 34.1915 29.6929C32.7202 29.6929 31.2765 30.8021 31.2765 33.08V41.6256H26.315V25.8635H31.0863V28.0475H31.1504C31.6294 27.0781 33.3069 25.4213 35.8667 25.4213C38.635 25.4213 41.6256 27.0644 41.6256 31.8769L41.6233 41.6256Z" fill="white"/>
</svg>
