<svg width="60" height="60" viewBox="0 0 60 60" fill="none" xmlns="http://www.w3.org/2000/svg">
<rect width="60" height="60" rx="30" fill="#FF0000"/>
<path d="M50.5477 19.6956C50.0535 17.8597 48.6059 16.4122 46.77 15.9179C43.416 15 29.9999 15 29.9999 15C29.9999 15 16.5838 15 13.2298 15.8826C11.4292 16.3769 9.94637 17.8597 9.4521 19.6956C8.56946 23.0497 8.56946 30.0049 8.56946 30.0049C8.56946 30.0049 8.56946 36.9953 9.4521 40.3141C9.94637 42.15 11.3939 43.5975 13.2298 44.0918C16.6191 45.0097 29.9999 45.0097 29.9999 45.0097C29.9999 45.0097 43.416 45.0097 46.77 44.1271C48.6059 43.6328 50.0535 42.1853 50.5477 40.3494C51.4304 36.9953 51.4304 30.0402 51.4304 30.0402C51.4304 30.0402 51.4657 23.0497 50.5477 19.6956Z" fill="white"/>
<path d="M25.7279 36.4303L36.8845 30.0047L25.7279 23.5791V36.4303Z" fill="#FF0000"/>
</svg>
